<svg width="32" height="32" viewBox="0 0 32 32" fill="none" xmlns="http://www.w3.org/2000/svg">
<rect width="32" height="32" fill="#3173ED"/>
<g clip-path="url(#clip0_5994_3922)">
<path d="M21.719 5.88672H10.1148C9.16967 5.88672 8.33984 6.6642 8.33984 7.58447V24.7506C8.33984 25.0587 8.42558 25.3154 8.56376 25.5138C8.72901 25.7509 8.99508 25.8868 9.2804 25.8867C9.55015 25.8867 9.83736 25.7666 10.1026 25.5401L15.2943 21.1321C15.4547 20.9951 15.685 20.9166 15.9245 20.9166C16.1638 20.9166 16.3937 20.9951 16.5545 21.1324L21.7289 25.5394C21.9951 25.7667 22.2625 25.8868 22.5317 25.8868C22.9871 25.8868 23.431 25.5356 23.431 24.7507V7.58447C23.431 6.6642 22.6641 5.88672 21.719 5.88672Z" fill="white"/>
<path d="M15.538 16.8318C15.6686 16.9243 15.8246 16.9739 15.9845 16.974C16.1437 16.9745 16.2991 16.9256 16.4293 16.8341C16.5465 16.7508 16.6383 16.6367 16.6947 16.5044L17.0524 15.4133C17.1398 15.1503 17.2873 14.9113 17.4832 14.7153C17.6792 14.5193 17.9181 14.3717 18.181 14.2842L19.2317 13.9417C19.3825 13.8885 19.5131 13.7899 19.6054 13.6593C19.6978 13.5287 19.7474 13.3727 19.7474 13.2128C19.7474 13.0528 19.6978 12.8968 19.6054 12.7663C19.5131 12.6357 19.3825 12.537 19.2317 12.4838L18.161 12.1384C17.8986 12.0505 17.6601 11.9031 17.4642 11.7077C17.269 11.5124 17.1217 11.2746 17.0338 11.0129L16.6926 9.96226C16.6395 9.81139 16.5408 9.68077 16.4102 9.58852C16.279 9.49781 16.1233 9.44922 15.9638 9.44922C15.8043 9.44922 15.6486 9.49781 15.5175 9.58852C15.3845 9.68271 15.2845 9.81642 15.2318 9.97066L14.8866 11.0323C14.7997 11.285 14.6574 11.5151 14.4702 11.7056C14.2788 11.8998 14.0454 12.0476 13.7881 12.1376L12.7385 12.4786C12.6258 12.5184 12.5239 12.5837 12.4407 12.6695C12.3575 12.7553 12.2954 12.8593 12.2591 12.9732C12.2228 13.0871 12.2135 13.2078 12.2317 13.3259C12.25 13.4441 12.2954 13.5563 12.3643 13.654C12.4586 13.7871 12.5925 13.8871 12.7469 13.9397L13.7852 14.277C14.0482 14.3651 14.2871 14.5132 14.4832 14.7095C14.5356 14.7623 14.5848 14.8183 14.6305 14.8771C14.7547 15.0369 14.8507 15.2168 14.9144 15.4089L15.2556 16.4578C15.3088 16.6087 15.4075 16.7394 15.538 16.8318Z" fill="#3173ED"/>
</g>
<defs>
<clipPath id="clip0_5994_3922">
<rect width="20" height="20" fill="white" transform="translate(5.88672 5.88672)"/>
</clipPath>
</defs>
</svg>
