<svg width="140" height="140" viewBox="0 0 140 140" fill="none" xmlns="http://www.w3.org/2000/svg">
<rect width="140" height="140" fill="#3173ED"/>
<g clip-path="url(#clip0_5994_3922)">
<path d="M98.9592 19H40.3578C35.5851 19 31.3945 22.9263 31.3945 27.5737V114.263C31.3945 115.818 31.8275 117.115 32.5253 118.117C33.3598 119.314 34.7035 120 36.1443 120C37.5066 120 38.957 119.394 40.2964 118.25L66.5146 95.989C67.3243 95.2974 68.4875 94.9011 69.6968 94.9011C70.9057 94.9011 72.0665 95.2974 72.8786 95.9909L99.0092 118.246C100.353 119.394 101.704 120 103.064 120C105.363 120 107.605 118.227 107.605 114.263V27.5737C107.605 22.9263 103.732 19 98.9592 19Z" fill="white"/>
<path d="M61.4577 70.0891C62.0664 70.5195 62.7938 70.7508 63.5396 70.751C64.2816 70.7535 65.0061 70.526 65.6134 70.0999C66.1596 69.7119 66.5878 69.1806 66.8506 68.5646L68.5183 63.4842C68.926 62.2596 69.6138 61.1468 70.5273 60.2342C71.4407 59.3217 72.5546 58.6345 73.7804 58.2272L78.6795 56.6326C79.3826 56.3849 79.9913 55.9254 80.422 55.3175C80.8526 54.7096 81.0839 53.9832 81.0839 53.2384C81.0839 52.4937 80.8526 51.7673 80.422 51.1594C79.9913 50.5515 79.3826 50.092 78.6795 49.8443L73.6873 48.2362C72.464 47.8268 71.352 47.1404 70.4383 46.2304C69.5284 45.3213 68.8417 44.214 68.4319 42.9954L66.8412 38.1036C66.5936 37.4011 66.1333 36.793 65.5243 36.3634C64.9126 35.9411 64.1867 35.7148 63.4431 35.7148C62.6995 35.7148 61.9736 35.9411 61.3619 36.3634C60.7418 36.802 60.2759 37.4246 60.0301 38.1427L58.4205 43.0857C58.0155 44.2624 57.3521 45.3337 56.4789 46.221C55.5865 47.1252 54.4986 47.8132 53.2987 48.2321L48.405 49.82C47.8796 50.0052 47.4044 50.3095 47.0166 50.709C46.6288 51.1086 46.339 51.5925 46.1699 52.1228C46.0009 52.6531 45.9572 53.2153 46.0423 53.7653C46.1274 54.3153 46.339 54.8381 46.6604 55.2927C47.1001 55.9125 47.7243 56.3781 48.4441 56.6231L53.2852 58.1935C54.5115 58.6039 55.6256 59.2933 56.5396 60.2073C56.7842 60.4533 57.0136 60.7139 57.2264 60.9878C57.8056 61.7318 58.2533 62.5692 58.55 63.464L60.1408 68.3476C60.3889 69.0502 60.849 69.6586 61.4577 70.0891Z" fill="#3173ED"/>
<path d="M82.9823 79.4387C82.4389 79.4381 81.9091 79.2693 81.4657 78.9555C81.0223 78.6417 80.6872 78.1983 80.5064 77.6864L79.7212 75.2762C79.5654 74.8038 79.3013 74.3742 78.9499 74.0217C78.5985 73.6693 78.1696 73.4037 77.6973 73.2462L75.3334 72.4779C74.8152 72.3046 74.3642 71.974 74.0432 71.5322C73.7222 71.0904 73.5474 70.5595 73.5431 70.0136C73.5387 69.4677 73.7052 68.9342 74.0191 68.4874C74.3331 68.0406 74.7789 67.7029 75.2943 67.5215L77.7108 66.737C78.1709 66.573 78.5874 66.3062 78.9285 65.957C79.2697 65.6077 79.6793 64.7218L80.4511 62.3534C80.5812 61.9655 80.8004 61.6133 81.0911 61.3252C81.3818 61.037 81.736 60.8208 82.1253 60.6938C82.5146 60.5669 82.9282 60.5327 83.3331 60.5941C83.738 60.6555 84.1229 60.8107 84.4571 61.0473C84.9005 61.3593 85.2353 61.8018 85.415 62.313L86.2003 64.7245C86.3577 65.1951 86.6225 65.6228 86.9737 65.9737C87.325 66.3246 87.753 66.5891 88.2242 66.7464L90.5948 67.5134C91.1416 67.686 91.6174 68.0313 91.9508 68.4974C92.1853 68.8283 92.3398 69.209 92.4022 69.6097C92.4645 70.0103 92.433 70.42 92.31 70.8064C92.1871 71.1928 91.9762 71.5455 91.6938 71.8367C91.4114 72.1279 91.0652 72.3497 90.6825 72.4846L88.2673 73.2691C87.7974 73.4266 87.3703 73.6905 87.0193 74.0402C86.6685 74.3933 86.4036 74.8222 86.2448 75.2937L85.4771 77.6527C85.3026 78.1739 84.9684 78.6272 84.522 78.9485C84.0755 79.2697 83.5393 79.4426 82.9891 79.4427L82.9823 79.4387Z" fill="#538FFF" fill-opacity="0.8"/>
<path d="M81.7296 44.8977C81.3869 44.8974 81.0528 44.791 80.7732 44.5932C80.4936 44.3953 80.2823 44.1158 80.1683 43.7931L79.6732 42.2738C79.5749 41.976 79.4084 41.7052 79.1868 41.4831C78.9653 41.2609 78.6948 41.0935 78.397 40.9942L76.9063 40.5099C76.5796 40.4006 76.2952 40.1922 76.0928 39.9137C75.8904 39.6352 75.7801 39.3006 75.7774 38.9565C75.7747 38.6124 75.8796 38.276 76.0776 37.9944C76.2756 37.7127 76.5567 37.4998 76.8817 37.3855L78.4055 36.891C78.6956 36.7876 78.9582 36.6194 79.1733 36.3993C79.3885 36.1791 79.5504 35.9128 79.6468 35.6206L80.1335 34.1277C80.2155 33.8832 80.3537 33.6612 80.537 33.4795C80.7203 33.2979 80.9436 33.1616 81.1891 33.0816C81.4346 33.0015 81.6955 32.98 81.9508 33.0187C82.2061 33.0574 82.4488 33.1552 82.6595 33.3043C82.9391 33.501 83.1503 33.78 83.2636 34.1022L83.7588 35.6223C83.858 35.919 84.025 36.1886 84.2465 36.4098C84.4679 36.631 84.7379 36.7978 85.035 36.8969L86.5298 37.3804C86.8746 37.4892 87.1747 37.7069 87.3849 38.0007C87.5328 38.2093 87.6302 38.4493 87.6695 38.7018C87.7088 38.9544 87.6889 39.2126 87.6114 39.4562C87.5339 39.6998 87.4009 39.9221 87.2228 40.1057C87.0447 40.2892 86.8265 40.429 86.5851 40.5141L85.0622 41.0086C84.7659 41.1079 84.4965 41.2742 84.2752 41.4947C84.054 41.7173 83.8869 41.9876 83.7868 42.2849L83.3027 43.7719C83.1927 44.1005 82.982 44.3862 82.7004 44.5887C82.4189 44.7912 82.0808 44.9002 81.7338 44.9003L81.7296 44.8977Z" fill="#3173ED" fill-opacity="0.4"/>
</g>
<defs>
<clipPath id="clip0_5994_3922">
<rect width="101" height="101" fill="white" transform="translate(19 19)"/>
</clipPath>
</defs>
</svg>
